<?xml version="1.0" standalone="no"?>
<!DOCTYPE svg PUBLIC "-//W3C//DTD SVG 20010904//EN"
 "http://www.w3.org/TR/2001/REC-SVG-20010904/DTD/svg10.dtd">
<svg version="1.0" xmlns="http://www.w3.org/2000/svg"
 width="235.000000pt" height="256.000000pt" viewBox="0 0 235.000000 256.000000"
 preserveAspectRatio="xMidYMid meet">
<metadata>
Created by potrace 1.16, written by Peter Selinger 2001-2019
</metadata>
<g transform="translate(0.000000,256.000000) scale(0.100000,-0.100000)"
fill="#000000" stroke="none">
<path d="M0 1280 l0 -1280 80 0 80 0 0 1280 0 1280 -80 0 -80 0 0 -1280z"/>
<path d="M175 1280 c0 -707 1 -996 2 -642 2 353 2 931 0 1285 -1 353 -2 64 -2
-643z"/>
<path d="M2145 1280 l0 -1280 103 0 102 0 0 1280 0 1280 -102 0 -103 0 0
-1280z"/>
<path d="M1080 2244 c-244 -17 -489 -74 -641 -150 -113 -56 -104 -9 -101 -552
l2 -472 120 0 c91 0 119 3 117 13 -1 8 19 13 71 15 59 2 72 0 72 -13 0 -8 7
-15 15 -15 8 0 15 7 15 15 0 19 80 18 87 -2 7 -17 23 -17 23 0 0 10 21 14 80
14 63 1 80 -1 80 -13 0 -8 7 -14 15 -14 8 0 15 7 15 15 0 11 11 15 40 15 29 0
40 -4 40 -15 0 -8 9 -15 20 -15 11 0 20 6 20 14 0 10 19 14 75 15 62 1 75 -1
75 -14 0 -8 5 -15 10 -15 6 0 10 7 10 15 0 11 12 15 45 15 33 0 45 -4 45 -15
0 -8 5 -15 10 -15 6 0 10 6 10 13 0 10 21 14 80 14 63 1 80 -1 80 -13 0 -8 7
-14 15 -14 8 0 15 7 15 15 0 22 57 20 63 -2 4 -17 5 -17 6 0 1 21 19 23 27 2
5 -12 31 -15 143 -15 l136 0 -3 477 -3 478 -27 28 c-39 41 -172 103 -282 132
-163 43 -450 70 -620 59z m39 -595 c-11 -52 -18 -107 -15 -122 5 -25 3 -28
-17 -25 -19 3 -22 9 -22 55 0 28 4 51 9 50 9 -2 38 94 30 102 -2 2 3 13 13 23
9 10 18 17 20 15 1 -2 -6 -46 -18 -98z m175 76 c-34 -35 -84 -143 -84 -184 0
-19 8 -43 18 -54 16 -19 16 -20 -5 -8 -48 25 -56 86 -22 154 24 47 87 117 106
117 6 0 1 -11 -13 -25z m100 4 c19 -15 26 -29 25 -52 l0 -32 -19 43 c-11 23
-30 46 -42 52 -15 6 -17 9 -7 9 9 1 28 -8 43 -20z m-414 -129 c0 -5 -8 -10
-17 -10 -15 0 -16 2 -3 10 19 12 20 12 20 0z m-115 -68 c-18 -15 -85 -54 -85
-48 0 3 19 16 43 30 43 26 59 33 42 18z m575 -32 c0 -38 -35 -60 -92 -58 -51
1 -51 2 -10 5 34 3 47 11 70 39 15 19 28 34 30 34 1 0 2 -9 2 -20z"/>
<path d="M880 994 c-7 -19 -9 -38 -6 -41 3 -4 6 -1 6 5 0 7 9 12 20 12 11 0
20 -5 20 -12 0 -6 2 -9 5 -7 6 7 -17 79 -26 79 -4 0 -13 -16 -19 -36z m30 2
c0 -3 -4 -8 -10 -11 -5 -3 -10 -1 -10 4 0 6 5 11 10 11 6 0 10 -2 10 -4z"/>
<path d="M1322 1018 c-26 -26 -6 -68 33 -68 18 0 17 2 -5 13 -14 7 -25 19 -25
27 0 8 11 20 25 27 22 11 23 13 5 13 -12 0 -26 -5 -33 -12z"/>
<path d="M1008 1015 c-6 -7 3 -65 11 -65 7 0 7 58 -1 65 -2 3 -7 3 -10 0z"/>
<path d="M1128 1015 c-6 -7 3 -65 11 -65 7 0 7 58 -1 65 -2 3 -7 3 -10 0z"/>
<path d="M941 978 c1 -29 2 -30 8 -9 9 34 29 37 34 6 4 -24 4 -24 3 2 -1 21
-7 29 -23 31 -20 3 -23 -1 -22 -30z"/>
<path d="M1088 1002 c11 -7 11 -10 -2 -15 -23 -9 -20 -37 5 -37 16 0 20 5 17
27 -2 14 -10 28 -18 30 -12 4 -12 3 -2 -5z m12 -32 c0 -5 -4 -10 -10 -10 -5 0
-10 5 -10 10 0 6 5 10 10 10 6 0 10 -4 10 -10z"/>
<path d="M1172 980 c0 -19 2 -27 5 -17 2 9 2 25 0 35 -3 9 -5 1 -5 -18z"/>
<path d="M1194 995 c-9 -22 3 -45 23 -45 15 0 15 2 -3 15 -19 15 -19 15 0 30
18 13 18 15 3 15 -10 0 -20 -7 -23 -15z"/>
<path d="M1246 1001 c-3 -5 1 -15 10 -22 14 -12 14 -14 -3 -20 -16 -7 -16 -8
-1 -8 22 -1 34 19 18 29 -7 4 -9 13 -6 19 4 6 3 11 -3 11 -5 0 -12 -4 -15 -9z"/>
<path d="M1384 996 c-9 -24 4 -48 23 -44 12 2 18 12 18 28 0 29 -32 41 -41 16z
m36 -22 c0 -8 -7 -14 -15 -14 -15 0 -21 21 -9 33 10 9 24 -2 24 -19z"/>
<path d="M1040 981 c0 -11 5 -23 10 -26 6 -4 10 5 10 19 0 14 -4 26 -10 26 -5
0 -10 -9 -10 -19z"/>
</g>
</svg>
